<mxfile host="Electron" modified="2023-12-03T08:51:27.235Z" agent="Mozilla/5.0 (Windows NT 10.0; Win64; x64) AppleWebKit/537.36 (KHTML, like Gecko) draw.io/22.1.2 Chrome/114.0.5735.289 Electron/25.9.4 Safari/537.36" etag="rPVHLK4BVLHEvEtGmAkh" version="22.1.2" type="device">
  <diagram name="Pagina-1" id="OQ6ZhpNWoghMY_z28dE6">
    <mxGraphModel dx="521" dy="1440" grid="1" gridSize="10" guides="1" tooltips="1" connect="1" arrows="1" fold="1" page="1" pageScale="1" pageWidth="1169" pageHeight="827" math="0" shadow="0">
      <root>
        <mxCell id="0" />
        <mxCell id="1" parent="0" />
        <mxCell id="pSNmFWjTUGqxGpXRM-F6-8" value="" style="group" parent="1" vertex="1" connectable="0">
          <mxGeometry x="30" y="-440" width="80" height="80" as="geometry" />
        </mxCell>
        <mxCell id="pSNmFWjTUGqxGpXRM-F6-1" value="" style="ellipse;whiteSpace=wrap;html=1;aspect=fixed;" parent="pSNmFWjTUGqxGpXRM-F6-8" vertex="1">
          <mxGeometry width="80" height="80" as="geometry" />
        </mxCell>
        <mxCell id="pSNmFWjTUGqxGpXRM-F6-2" value="" style="endArrow=none;html=1;rounded=0;exitX=0.5;exitY=1;exitDx=0;exitDy=0;entryX=0.5;entryY=0;entryDx=0;entryDy=0;" parent="pSNmFWjTUGqxGpXRM-F6-8" source="pSNmFWjTUGqxGpXRM-F6-1" target="pSNmFWjTUGqxGpXRM-F6-1" edge="1">
          <mxGeometry width="50" height="50" relative="1" as="geometry">
            <mxPoint x="-6" y="50" as="sourcePoint" />
            <mxPoint x="44" as="targetPoint" />
          </mxGeometry>
        </mxCell>
        <mxCell id="pSNmFWjTUGqxGpXRM-F6-3" value="" style="endArrow=none;html=1;rounded=0;entryX=1;entryY=0.5;entryDx=0;entryDy=0;" parent="pSNmFWjTUGqxGpXRM-F6-8" target="pSNmFWjTUGqxGpXRM-F6-1" edge="1">
          <mxGeometry width="50" height="50" relative="1" as="geometry">
            <mxPoint x="40" y="40" as="sourcePoint" />
            <mxPoint x="70" y="10" as="targetPoint" />
          </mxGeometry>
        </mxCell>
        <mxCell id="pSNmFWjTUGqxGpXRM-F6-5" value="1" style="text;html=1;strokeColor=none;fillColor=none;align=center;verticalAlign=middle;whiteSpace=wrap;rounded=0;" parent="pSNmFWjTUGqxGpXRM-F6-8" vertex="1">
          <mxGeometry x="10" y="25" width="20" height="30" as="geometry" />
        </mxCell>
        <mxCell id="pSNmFWjTUGqxGpXRM-F6-6" value="0" style="text;html=1;strokeColor=none;fillColor=none;align=center;verticalAlign=middle;whiteSpace=wrap;rounded=0;" parent="pSNmFWjTUGqxGpXRM-F6-8" vertex="1">
          <mxGeometry x="50" y="10" width="20" height="30" as="geometry" />
        </mxCell>
        <mxCell id="pSNmFWjTUGqxGpXRM-F6-7" value="0" style="text;html=1;strokeColor=none;fillColor=none;align=center;verticalAlign=middle;whiteSpace=wrap;rounded=0;" parent="pSNmFWjTUGqxGpXRM-F6-8" vertex="1">
          <mxGeometry x="50" y="40" width="20" height="30" as="geometry" />
        </mxCell>
        <mxCell id="pSNmFWjTUGqxGpXRM-F6-11" value="" style="group" parent="1" vertex="1" connectable="0">
          <mxGeometry x="170" y="-483" width="80" height="80" as="geometry" />
        </mxCell>
        <mxCell id="pSNmFWjTUGqxGpXRM-F6-12" value="" style="ellipse;whiteSpace=wrap;html=1;aspect=fixed;" parent="pSNmFWjTUGqxGpXRM-F6-11" vertex="1">
          <mxGeometry width="80" height="80" as="geometry" />
        </mxCell>
        <mxCell id="pSNmFWjTUGqxGpXRM-F6-13" value="" style="endArrow=none;html=1;rounded=0;exitX=0.5;exitY=1;exitDx=0;exitDy=0;entryX=0.5;entryY=0;entryDx=0;entryDy=0;" parent="pSNmFWjTUGqxGpXRM-F6-11" source="pSNmFWjTUGqxGpXRM-F6-12" target="pSNmFWjTUGqxGpXRM-F6-12" edge="1">
          <mxGeometry width="50" height="50" relative="1" as="geometry">
            <mxPoint x="-6" y="50" as="sourcePoint" />
            <mxPoint x="44" as="targetPoint" />
          </mxGeometry>
        </mxCell>
        <mxCell id="pSNmFWjTUGqxGpXRM-F6-14" value="" style="endArrow=none;html=1;rounded=0;entryX=1;entryY=0.5;entryDx=0;entryDy=0;" parent="pSNmFWjTUGqxGpXRM-F6-11" target="pSNmFWjTUGqxGpXRM-F6-12" edge="1">
          <mxGeometry width="50" height="50" relative="1" as="geometry">
            <mxPoint x="40" y="40" as="sourcePoint" />
            <mxPoint x="70" y="10" as="targetPoint" />
          </mxGeometry>
        </mxCell>
        <mxCell id="pSNmFWjTUGqxGpXRM-F6-15" value="2" style="text;html=1;strokeColor=none;fillColor=none;align=center;verticalAlign=middle;whiteSpace=wrap;rounded=0;" parent="pSNmFWjTUGqxGpXRM-F6-11" vertex="1">
          <mxGeometry x="10" y="25" width="20" height="30" as="geometry" />
        </mxCell>
        <mxCell id="pSNmFWjTUGqxGpXRM-F6-16" value="8" style="text;html=1;strokeColor=none;fillColor=none;align=center;verticalAlign=middle;whiteSpace=wrap;rounded=0;" parent="pSNmFWjTUGqxGpXRM-F6-11" vertex="1">
          <mxGeometry x="50" y="10" width="20" height="30" as="geometry" />
        </mxCell>
        <mxCell id="-BxrGaKp4y2mzYd7at5k-8" value="8" style="text;html=1;strokeColor=none;fillColor=none;align=center;verticalAlign=middle;whiteSpace=wrap;rounded=0;" vertex="1" parent="pSNmFWjTUGqxGpXRM-F6-11">
          <mxGeometry x="50" y="40" width="20" height="30" as="geometry" />
        </mxCell>
        <mxCell id="pSNmFWjTUGqxGpXRM-F6-18" value="" style="endArrow=classic;html=1;rounded=0;exitX=1;exitY=0.5;exitDx=0;exitDy=0;entryX=0;entryY=0.5;entryDx=0;entryDy=0;fillColor=#f8cecc;strokeColor=#b85450;" parent="1" source="pSNmFWjTUGqxGpXRM-F6-1" target="pSNmFWjTUGqxGpXRM-F6-12" edge="1">
          <mxGeometry width="50" height="50" relative="1" as="geometry">
            <mxPoint x="310" y="-360" as="sourcePoint" />
            <mxPoint x="360" y="-410" as="targetPoint" />
          </mxGeometry>
        </mxCell>
        <mxCell id="pSNmFWjTUGqxGpXRM-F6-19" value="Act A 8W" style="edgeLabel;html=1;align=center;verticalAlign=middle;resizable=0;points=[];" parent="pSNmFWjTUGqxGpXRM-F6-18" vertex="1" connectable="0">
          <mxGeometry x="0.0943" y="-1" relative="1" as="geometry">
            <mxPoint y="-1" as="offset" />
          </mxGeometry>
        </mxCell>
        <mxCell id="pSNmFWjTUGqxGpXRM-F6-20" value="" style="group" parent="1" vertex="1" connectable="0">
          <mxGeometry x="350" y="-630" width="80" height="80" as="geometry" />
        </mxCell>
        <mxCell id="pSNmFWjTUGqxGpXRM-F6-21" value="" style="ellipse;whiteSpace=wrap;html=1;aspect=fixed;" parent="pSNmFWjTUGqxGpXRM-F6-20" vertex="1">
          <mxGeometry width="80" height="80" as="geometry" />
        </mxCell>
        <mxCell id="pSNmFWjTUGqxGpXRM-F6-22" value="" style="endArrow=none;html=1;rounded=0;exitX=0.5;exitY=1;exitDx=0;exitDy=0;entryX=0.5;entryY=0;entryDx=0;entryDy=0;" parent="pSNmFWjTUGqxGpXRM-F6-20" source="pSNmFWjTUGqxGpXRM-F6-21" target="pSNmFWjTUGqxGpXRM-F6-21" edge="1">
          <mxGeometry width="50" height="50" relative="1" as="geometry">
            <mxPoint x="-6" y="50" as="sourcePoint" />
            <mxPoint x="44" as="targetPoint" />
          </mxGeometry>
        </mxCell>
        <mxCell id="pSNmFWjTUGqxGpXRM-F6-23" value="" style="endArrow=none;html=1;rounded=0;entryX=1;entryY=0.5;entryDx=0;entryDy=0;" parent="pSNmFWjTUGqxGpXRM-F6-20" target="pSNmFWjTUGqxGpXRM-F6-21" edge="1">
          <mxGeometry width="50" height="50" relative="1" as="geometry">
            <mxPoint x="40" y="40" as="sourcePoint" />
            <mxPoint x="70" y="10" as="targetPoint" />
          </mxGeometry>
        </mxCell>
        <mxCell id="pSNmFWjTUGqxGpXRM-F6-24" value="3" style="text;html=1;strokeColor=none;fillColor=none;align=center;verticalAlign=middle;whiteSpace=wrap;rounded=0;" parent="pSNmFWjTUGqxGpXRM-F6-20" vertex="1">
          <mxGeometry x="10" y="25" width="20" height="30" as="geometry" />
        </mxCell>
        <mxCell id="pSNmFWjTUGqxGpXRM-F6-25" value="14" style="text;html=1;strokeColor=none;fillColor=none;align=center;verticalAlign=middle;whiteSpace=wrap;rounded=0;" parent="pSNmFWjTUGqxGpXRM-F6-20" vertex="1">
          <mxGeometry x="50" y="10" width="20" height="30" as="geometry" />
        </mxCell>
        <mxCell id="-BxrGaKp4y2mzYd7at5k-6" value="144" style="text;html=1;strokeColor=none;fillColor=none;align=center;verticalAlign=middle;whiteSpace=wrap;rounded=0;" vertex="1" parent="pSNmFWjTUGqxGpXRM-F6-20">
          <mxGeometry x="50" y="40" width="20" height="30" as="geometry" />
        </mxCell>
        <mxCell id="pSNmFWjTUGqxGpXRM-F6-31" value="" style="endArrow=classic;html=1;rounded=0;exitX=1;exitY=0.5;exitDx=0;exitDy=0;entryX=0;entryY=0.5;entryDx=0;entryDy=0;" parent="1" source="pSNmFWjTUGqxGpXRM-F6-12" target="pSNmFWjTUGqxGpXRM-F6-21" edge="1">
          <mxGeometry width="50" height="50" relative="1" as="geometry">
            <mxPoint x="290" y="-405" as="sourcePoint" />
            <mxPoint x="340" y="-455" as="targetPoint" />
          </mxGeometry>
        </mxCell>
        <mxCell id="pSNmFWjTUGqxGpXRM-F6-32" value="Act B 6W" style="edgeLabel;html=1;align=center;verticalAlign=middle;resizable=0;points=[];" parent="pSNmFWjTUGqxGpXRM-F6-31" vertex="1" connectable="0">
          <mxGeometry x="-0.2201" y="-3" relative="1" as="geometry">
            <mxPoint as="offset" />
          </mxGeometry>
        </mxCell>
        <mxCell id="pSNmFWjTUGqxGpXRM-F6-33" value="" style="group" parent="1" vertex="1" connectable="0">
          <mxGeometry x="390" y="-470" width="80" height="80" as="geometry" />
        </mxCell>
        <mxCell id="pSNmFWjTUGqxGpXRM-F6-34" value="" style="ellipse;whiteSpace=wrap;html=1;aspect=fixed;" parent="pSNmFWjTUGqxGpXRM-F6-33" vertex="1">
          <mxGeometry width="80" height="80" as="geometry" />
        </mxCell>
        <mxCell id="pSNmFWjTUGqxGpXRM-F6-35" value="" style="endArrow=none;html=1;rounded=0;exitX=0.5;exitY=1;exitDx=0;exitDy=0;entryX=0.5;entryY=0;entryDx=0;entryDy=0;" parent="pSNmFWjTUGqxGpXRM-F6-33" source="pSNmFWjTUGqxGpXRM-F6-34" target="pSNmFWjTUGqxGpXRM-F6-34" edge="1">
          <mxGeometry width="50" height="50" relative="1" as="geometry">
            <mxPoint x="-6" y="50" as="sourcePoint" />
            <mxPoint x="44" as="targetPoint" />
          </mxGeometry>
        </mxCell>
        <mxCell id="pSNmFWjTUGqxGpXRM-F6-36" value="" style="endArrow=none;html=1;rounded=0;entryX=1;entryY=0.5;entryDx=0;entryDy=0;" parent="pSNmFWjTUGqxGpXRM-F6-33" target="pSNmFWjTUGqxGpXRM-F6-34" edge="1">
          <mxGeometry width="50" height="50" relative="1" as="geometry">
            <mxPoint x="40" y="40" as="sourcePoint" />
            <mxPoint x="70" y="10" as="targetPoint" />
          </mxGeometry>
        </mxCell>
        <mxCell id="pSNmFWjTUGqxGpXRM-F6-37" value="4" style="text;html=1;strokeColor=none;fillColor=none;align=center;verticalAlign=middle;whiteSpace=wrap;rounded=0;" parent="pSNmFWjTUGqxGpXRM-F6-33" vertex="1">
          <mxGeometry x="10" y="25" width="20" height="30" as="geometry" />
        </mxCell>
        <mxCell id="pSNmFWjTUGqxGpXRM-F6-38" value="20" style="text;html=1;strokeColor=none;fillColor=none;align=center;verticalAlign=middle;whiteSpace=wrap;rounded=0;" parent="pSNmFWjTUGqxGpXRM-F6-33" vertex="1">
          <mxGeometry x="50" y="10" width="20" height="30" as="geometry" />
        </mxCell>
        <mxCell id="-BxrGaKp4y2mzYd7at5k-5" value="20" style="text;html=1;strokeColor=none;fillColor=none;align=center;verticalAlign=middle;whiteSpace=wrap;rounded=0;" vertex="1" parent="pSNmFWjTUGqxGpXRM-F6-33">
          <mxGeometry x="50" y="42" width="20" height="30" as="geometry" />
        </mxCell>
        <mxCell id="pSNmFWjTUGqxGpXRM-F6-40" value="" style="group" parent="1" vertex="1" connectable="0">
          <mxGeometry x="340" y="-270" width="80" height="80" as="geometry" />
        </mxCell>
        <mxCell id="pSNmFWjTUGqxGpXRM-F6-41" value="" style="ellipse;whiteSpace=wrap;html=1;aspect=fixed;" parent="pSNmFWjTUGqxGpXRM-F6-40" vertex="1">
          <mxGeometry width="80" height="80" as="geometry" />
        </mxCell>
        <mxCell id="pSNmFWjTUGqxGpXRM-F6-42" value="" style="endArrow=none;html=1;rounded=0;exitX=0.5;exitY=1;exitDx=0;exitDy=0;entryX=0.5;entryY=0;entryDx=0;entryDy=0;" parent="pSNmFWjTUGqxGpXRM-F6-40" source="pSNmFWjTUGqxGpXRM-F6-41" target="pSNmFWjTUGqxGpXRM-F6-41" edge="1">
          <mxGeometry width="50" height="50" relative="1" as="geometry">
            <mxPoint x="-6" y="50" as="sourcePoint" />
            <mxPoint x="44" as="targetPoint" />
          </mxGeometry>
        </mxCell>
        <mxCell id="pSNmFWjTUGqxGpXRM-F6-43" value="" style="endArrow=none;html=1;rounded=0;entryX=1;entryY=0.5;entryDx=0;entryDy=0;" parent="pSNmFWjTUGqxGpXRM-F6-40" target="pSNmFWjTUGqxGpXRM-F6-41" edge="1">
          <mxGeometry width="50" height="50" relative="1" as="geometry">
            <mxPoint x="40" y="40" as="sourcePoint" />
            <mxPoint x="70" y="10" as="targetPoint" />
          </mxGeometry>
        </mxCell>
        <mxCell id="pSNmFWjTUGqxGpXRM-F6-44" value="5" style="text;html=1;strokeColor=none;fillColor=none;align=center;verticalAlign=middle;whiteSpace=wrap;rounded=0;" parent="pSNmFWjTUGqxGpXRM-F6-40" vertex="1">
          <mxGeometry x="10" y="25" width="20" height="30" as="geometry" />
        </mxCell>
        <mxCell id="7PPBYEfFuCz0JJDlBOeH-1" value="18" style="text;html=1;strokeColor=none;fillColor=none;align=center;verticalAlign=middle;whiteSpace=wrap;rounded=0;" parent="pSNmFWjTUGqxGpXRM-F6-40" vertex="1">
          <mxGeometry x="50" y="10" width="20" height="30" as="geometry" />
        </mxCell>
        <mxCell id="-BxrGaKp4y2mzYd7at5k-7" value="28" style="text;html=1;strokeColor=none;fillColor=none;align=center;verticalAlign=middle;whiteSpace=wrap;rounded=0;" vertex="1" parent="pSNmFWjTUGqxGpXRM-F6-40">
          <mxGeometry x="50" y="40" width="20" height="30" as="geometry" />
        </mxCell>
        <mxCell id="pSNmFWjTUGqxGpXRM-F6-47" value="" style="endArrow=classic;html=1;rounded=0;exitX=0.98;exitY=0.643;exitDx=0;exitDy=0;entryX=0;entryY=0.5;entryDx=0;entryDy=0;exitPerimeter=0;fillColor=#f8cecc;strokeColor=#b85450;" parent="1" source="pSNmFWjTUGqxGpXRM-F6-12" target="pSNmFWjTUGqxGpXRM-F6-34" edge="1">
          <mxGeometry width="50" height="50" relative="1" as="geometry">
            <mxPoint x="240" y="-250" as="sourcePoint" />
            <mxPoint x="290" y="-300" as="targetPoint" />
          </mxGeometry>
        </mxCell>
        <mxCell id="pSNmFWjTUGqxGpXRM-F6-49" value="Act C 12W" style="edgeLabel;html=1;align=center;verticalAlign=middle;resizable=0;points=[];" parent="pSNmFWjTUGqxGpXRM-F6-47" vertex="1" connectable="0">
          <mxGeometry x="-0.08" relative="1" as="geometry">
            <mxPoint as="offset" />
          </mxGeometry>
        </mxCell>
        <mxCell id="pSNmFWjTUGqxGpXRM-F6-48" value="" style="endArrow=classic;html=1;rounded=0;exitX=0.76;exitY=0.913;exitDx=0;exitDy=0;entryX=-0.03;entryY=0.375;entryDx=0;entryDy=0;exitPerimeter=0;entryPerimeter=0;" parent="1" source="pSNmFWjTUGqxGpXRM-F6-12" target="pSNmFWjTUGqxGpXRM-F6-41" edge="1">
          <mxGeometry width="50" height="50" relative="1" as="geometry">
            <mxPoint x="230" y="-350" as="sourcePoint" />
            <mxPoint x="422" y="-289" as="targetPoint" />
          </mxGeometry>
        </mxCell>
        <mxCell id="pSNmFWjTUGqxGpXRM-F6-50" value="Act D 10W" style="edgeLabel;html=1;align=center;verticalAlign=middle;resizable=0;points=[];" parent="pSNmFWjTUGqxGpXRM-F6-48" vertex="1" connectable="0">
          <mxGeometry x="-0.178" y="-1" relative="1" as="geometry">
            <mxPoint y="-1" as="offset" />
          </mxGeometry>
        </mxCell>
        <mxCell id="pSNmFWjTUGqxGpXRM-F6-51" value="" style="group" parent="1" vertex="1" connectable="0">
          <mxGeometry x="530" y="-620" width="80" height="80" as="geometry" />
        </mxCell>
        <mxCell id="pSNmFWjTUGqxGpXRM-F6-52" value="" style="ellipse;whiteSpace=wrap;html=1;aspect=fixed;" parent="pSNmFWjTUGqxGpXRM-F6-51" vertex="1">
          <mxGeometry width="80" height="80" as="geometry" />
        </mxCell>
        <mxCell id="pSNmFWjTUGqxGpXRM-F6-53" value="" style="endArrow=none;html=1;rounded=0;exitX=0.5;exitY=1;exitDx=0;exitDy=0;entryX=0.5;entryY=0;entryDx=0;entryDy=0;" parent="pSNmFWjTUGqxGpXRM-F6-51" source="pSNmFWjTUGqxGpXRM-F6-52" target="pSNmFWjTUGqxGpXRM-F6-52" edge="1">
          <mxGeometry width="50" height="50" relative="1" as="geometry">
            <mxPoint x="-6" y="50" as="sourcePoint" />
            <mxPoint x="44" as="targetPoint" />
          </mxGeometry>
        </mxCell>
        <mxCell id="pSNmFWjTUGqxGpXRM-F6-54" value="" style="endArrow=none;html=1;rounded=0;entryX=1;entryY=0.5;entryDx=0;entryDy=0;" parent="pSNmFWjTUGqxGpXRM-F6-51" target="pSNmFWjTUGqxGpXRM-F6-52" edge="1">
          <mxGeometry width="50" height="50" relative="1" as="geometry">
            <mxPoint x="40" y="40" as="sourcePoint" />
            <mxPoint x="70" y="10" as="targetPoint" />
          </mxGeometry>
        </mxCell>
        <mxCell id="pSNmFWjTUGqxGpXRM-F6-55" value="6" style="text;html=1;strokeColor=none;fillColor=none;align=center;verticalAlign=middle;whiteSpace=wrap;rounded=0;" parent="pSNmFWjTUGqxGpXRM-F6-51" vertex="1">
          <mxGeometry x="10" y="25" width="20" height="30" as="geometry" />
        </mxCell>
        <mxCell id="pSNmFWjTUGqxGpXRM-F6-56" value="22" style="text;html=1;strokeColor=none;fillColor=none;align=center;verticalAlign=middle;whiteSpace=wrap;rounded=0;" parent="pSNmFWjTUGqxGpXRM-F6-51" vertex="1">
          <mxGeometry x="50" y="10" width="20" height="30" as="geometry" />
        </mxCell>
        <mxCell id="pSNmFWjTUGqxGpXRM-F6-57" value="152" style="text;html=1;strokeColor=none;fillColor=none;align=center;verticalAlign=middle;whiteSpace=wrap;rounded=0;" parent="pSNmFWjTUGqxGpXRM-F6-51" vertex="1">
          <mxGeometry x="50" y="40" width="20" height="30" as="geometry" />
        </mxCell>
        <mxCell id="pSNmFWjTUGqxGpXRM-F6-60" value="" style="endArrow=classic;html=1;rounded=0;entryX=0.04;entryY=0.385;entryDx=0;entryDy=0;entryPerimeter=0;exitX=1;exitY=0.5;exitDx=0;exitDy=0;" parent="1" source="pSNmFWjTUGqxGpXRM-F6-21" target="pSNmFWjTUGqxGpXRM-F6-52" edge="1">
          <mxGeometry width="50" height="50" relative="1" as="geometry">
            <mxPoint x="460" y="-490" as="sourcePoint" />
            <mxPoint x="510" y="-540" as="targetPoint" />
          </mxGeometry>
        </mxCell>
        <mxCell id="pSNmFWjTUGqxGpXRM-F6-61" value="Act E 8W" style="edgeLabel;html=1;align=center;verticalAlign=middle;resizable=0;points=[];" parent="pSNmFWjTUGqxGpXRM-F6-60" vertex="1" connectable="0">
          <mxGeometry x="0.2446" y="1" relative="1" as="geometry">
            <mxPoint as="offset" />
          </mxGeometry>
        </mxCell>
        <mxCell id="pSNmFWjTUGqxGpXRM-F6-76" value="" style="group" parent="1" vertex="1" connectable="0">
          <mxGeometry x="580" y="-480" width="80" height="80" as="geometry" />
        </mxCell>
        <mxCell id="pSNmFWjTUGqxGpXRM-F6-77" value="" style="ellipse;whiteSpace=wrap;html=1;aspect=fixed;" parent="pSNmFWjTUGqxGpXRM-F6-76" vertex="1">
          <mxGeometry width="80" height="80" as="geometry" />
        </mxCell>
        <mxCell id="pSNmFWjTUGqxGpXRM-F6-78" value="" style="endArrow=none;html=1;rounded=0;exitX=0.5;exitY=1;exitDx=0;exitDy=0;entryX=0.5;entryY=0;entryDx=0;entryDy=0;" parent="pSNmFWjTUGqxGpXRM-F6-76" source="pSNmFWjTUGqxGpXRM-F6-77" target="pSNmFWjTUGqxGpXRM-F6-77" edge="1">
          <mxGeometry width="50" height="50" relative="1" as="geometry">
            <mxPoint x="-6" y="50" as="sourcePoint" />
            <mxPoint x="44" as="targetPoint" />
          </mxGeometry>
        </mxCell>
        <mxCell id="pSNmFWjTUGqxGpXRM-F6-79" value="" style="endArrow=none;html=1;rounded=0;entryX=1;entryY=0.5;entryDx=0;entryDy=0;" parent="pSNmFWjTUGqxGpXRM-F6-76" target="pSNmFWjTUGqxGpXRM-F6-77" edge="1">
          <mxGeometry width="50" height="50" relative="1" as="geometry">
            <mxPoint x="40" y="40" as="sourcePoint" />
            <mxPoint x="70" y="10" as="targetPoint" />
          </mxGeometry>
        </mxCell>
        <mxCell id="pSNmFWjTUGqxGpXRM-F6-80" value="8" style="text;html=1;strokeColor=none;fillColor=none;align=center;verticalAlign=middle;whiteSpace=wrap;rounded=0;" parent="pSNmFWjTUGqxGpXRM-F6-76" vertex="1">
          <mxGeometry x="10" y="25" width="20" height="30" as="geometry" />
        </mxCell>
        <mxCell id="pSNmFWjTUGqxGpXRM-F6-81" value="26" style="text;html=1;strokeColor=none;fillColor=none;align=center;verticalAlign=middle;whiteSpace=wrap;rounded=0;" parent="pSNmFWjTUGqxGpXRM-F6-76" vertex="1">
          <mxGeometry x="50" y="10" width="20" height="30" as="geometry" />
        </mxCell>
        <mxCell id="pSNmFWjTUGqxGpXRM-F6-82" value="152" style="text;html=1;strokeColor=none;fillColor=none;align=center;verticalAlign=middle;whiteSpace=wrap;rounded=0;" parent="pSNmFWjTUGqxGpXRM-F6-76" vertex="1">
          <mxGeometry x="50" y="40" width="20" height="30" as="geometry" />
        </mxCell>
        <mxCell id="pSNmFWjTUGqxGpXRM-F6-83" value="" style="group" parent="1" vertex="1" connectable="0">
          <mxGeometry x="510" y="-200" width="80" height="80" as="geometry" />
        </mxCell>
        <mxCell id="pSNmFWjTUGqxGpXRM-F6-84" value="" style="ellipse;whiteSpace=wrap;html=1;aspect=fixed;" parent="pSNmFWjTUGqxGpXRM-F6-83" vertex="1">
          <mxGeometry width="80" height="80" as="geometry" />
        </mxCell>
        <mxCell id="pSNmFWjTUGqxGpXRM-F6-85" value="" style="endArrow=none;html=1;rounded=0;exitX=0.5;exitY=1;exitDx=0;exitDy=0;entryX=0.5;entryY=0;entryDx=0;entryDy=0;" parent="pSNmFWjTUGqxGpXRM-F6-83" source="pSNmFWjTUGqxGpXRM-F6-84" target="pSNmFWjTUGqxGpXRM-F6-84" edge="1">
          <mxGeometry width="50" height="50" relative="1" as="geometry">
            <mxPoint x="-6" y="50" as="sourcePoint" />
            <mxPoint x="44" as="targetPoint" />
          </mxGeometry>
        </mxCell>
        <mxCell id="pSNmFWjTUGqxGpXRM-F6-86" value="" style="endArrow=none;html=1;rounded=0;entryX=1;entryY=0.5;entryDx=0;entryDy=0;" parent="pSNmFWjTUGqxGpXRM-F6-83" target="pSNmFWjTUGqxGpXRM-F6-84" edge="1">
          <mxGeometry width="50" height="50" relative="1" as="geometry">
            <mxPoint x="40" y="40" as="sourcePoint" />
            <mxPoint x="70" y="10" as="targetPoint" />
          </mxGeometry>
        </mxCell>
        <mxCell id="pSNmFWjTUGqxGpXRM-F6-87" value="7" style="text;html=1;strokeColor=none;fillColor=none;align=center;verticalAlign=middle;whiteSpace=wrap;rounded=0;" parent="pSNmFWjTUGqxGpXRM-F6-83" vertex="1">
          <mxGeometry x="10" y="25" width="20" height="30" as="geometry" />
        </mxCell>
        <mxCell id="pSNmFWjTUGqxGpXRM-F6-88" value="26" style="text;html=1;strokeColor=none;fillColor=none;align=center;verticalAlign=middle;whiteSpace=wrap;rounded=0;" parent="pSNmFWjTUGqxGpXRM-F6-83" vertex="1">
          <mxGeometry x="50" y="10" width="20" height="30" as="geometry" />
        </mxCell>
        <mxCell id="pSNmFWjTUGqxGpXRM-F6-89" value="36" style="text;html=1;strokeColor=none;fillColor=none;align=center;verticalAlign=middle;whiteSpace=wrap;rounded=0;" parent="pSNmFWjTUGqxGpXRM-F6-83" vertex="1">
          <mxGeometry x="50" y="40" width="20" height="30" as="geometry" />
        </mxCell>
        <mxCell id="pSNmFWjTUGqxGpXRM-F6-90" value="" style="endArrow=classic;html=1;rounded=0;entryX=0;entryY=0.375;entryDx=0;entryDy=0;entryPerimeter=0;exitX=0.99;exitY=0.595;exitDx=0;exitDy=0;exitPerimeter=0;" parent="1" source="pSNmFWjTUGqxGpXRM-F6-41" target="pSNmFWjTUGqxGpXRM-F6-84" edge="1">
          <mxGeometry width="50" height="50" relative="1" as="geometry">
            <mxPoint x="450" y="-260" as="sourcePoint" />
            <mxPoint x="500" y="-310" as="targetPoint" />
          </mxGeometry>
        </mxCell>
        <mxCell id="pSNmFWjTUGqxGpXRM-F6-91" value="Act F 8w" style="edgeLabel;html=1;align=center;verticalAlign=middle;resizable=0;points=[];" parent="pSNmFWjTUGqxGpXRM-F6-90" vertex="1" connectable="0">
          <mxGeometry x="-0.3594" y="-1" relative="1" as="geometry">
            <mxPoint as="offset" />
          </mxGeometry>
        </mxCell>
        <mxCell id="pSNmFWjTUGqxGpXRM-F6-92" value="" style="endArrow=classic;html=1;rounded=0;entryX=0;entryY=0.5;entryDx=0;entryDy=0;exitX=0.975;exitY=0.405;exitDx=0;exitDy=0;exitPerimeter=0;" parent="1" source="pSNmFWjTUGqxGpXRM-F6-34" target="pSNmFWjTUGqxGpXRM-F6-77" edge="1">
          <mxGeometry width="50" height="50" relative="1" as="geometry">
            <mxPoint x="450" y="-260" as="sourcePoint" />
            <mxPoint x="500" y="-310" as="targetPoint" />
          </mxGeometry>
        </mxCell>
        <mxCell id="pSNmFWjTUGqxGpXRM-F6-94" value="Act G 6W" style="edgeLabel;html=1;align=center;verticalAlign=middle;resizable=0;points=[];" parent="pSNmFWjTUGqxGpXRM-F6-92" vertex="1" connectable="0">
          <mxGeometry x="0.1273" y="-2" relative="1" as="geometry">
            <mxPoint as="offset" />
          </mxGeometry>
        </mxCell>
        <mxCell id="pSNmFWjTUGqxGpXRM-F6-95" value="" style="group" parent="1" vertex="1" connectable="0">
          <mxGeometry x="720" y="-570" width="80" height="80" as="geometry" />
        </mxCell>
        <mxCell id="pSNmFWjTUGqxGpXRM-F6-96" value="" style="ellipse;whiteSpace=wrap;html=1;aspect=fixed;" parent="pSNmFWjTUGqxGpXRM-F6-95" vertex="1">
          <mxGeometry width="80" height="80" as="geometry" />
        </mxCell>
        <mxCell id="pSNmFWjTUGqxGpXRM-F6-97" value="" style="endArrow=none;html=1;rounded=0;exitX=0.5;exitY=1;exitDx=0;exitDy=0;entryX=0.5;entryY=0;entryDx=0;entryDy=0;" parent="pSNmFWjTUGqxGpXRM-F6-95" source="pSNmFWjTUGqxGpXRM-F6-96" target="pSNmFWjTUGqxGpXRM-F6-96" edge="1">
          <mxGeometry width="50" height="50" relative="1" as="geometry">
            <mxPoint x="-6" y="50" as="sourcePoint" />
            <mxPoint x="44" as="targetPoint" />
          </mxGeometry>
        </mxCell>
        <mxCell id="pSNmFWjTUGqxGpXRM-F6-98" value="" style="endArrow=none;html=1;rounded=0;entryX=1;entryY=0.5;entryDx=0;entryDy=0;" parent="pSNmFWjTUGqxGpXRM-F6-95" target="pSNmFWjTUGqxGpXRM-F6-96" edge="1">
          <mxGeometry width="50" height="50" relative="1" as="geometry">
            <mxPoint x="40" y="40" as="sourcePoint" />
            <mxPoint x="70" y="10" as="targetPoint" />
          </mxGeometry>
        </mxCell>
        <mxCell id="pSNmFWjTUGqxGpXRM-F6-99" value="9" style="text;html=1;strokeColor=none;fillColor=none;align=center;verticalAlign=middle;whiteSpace=wrap;rounded=0;" parent="pSNmFWjTUGqxGpXRM-F6-95" vertex="1">
          <mxGeometry x="10" y="25" width="20" height="30" as="geometry" />
        </mxCell>
        <mxCell id="pSNmFWjTUGqxGpXRM-F6-100" value="36" style="text;html=1;strokeColor=none;fillColor=none;align=center;verticalAlign=middle;whiteSpace=wrap;rounded=0;" parent="pSNmFWjTUGqxGpXRM-F6-95" vertex="1">
          <mxGeometry x="50" y="10" width="20" height="30" as="geometry" />
        </mxCell>
        <mxCell id="pSNmFWjTUGqxGpXRM-F6-101" value="162" style="text;html=1;strokeColor=none;fillColor=none;align=center;verticalAlign=middle;whiteSpace=wrap;rounded=0;" parent="pSNmFWjTUGqxGpXRM-F6-95" vertex="1">
          <mxGeometry x="50" y="40" width="20" height="30" as="geometry" />
        </mxCell>
        <mxCell id="pSNmFWjTUGqxGpXRM-F6-103" value="" style="endArrow=classic;html=1;rounded=0;exitX=0.968;exitY=0.337;exitDx=0;exitDy=0;exitPerimeter=0;entryX=0.049;entryY=0.699;entryDx=0;entryDy=0;entryPerimeter=0;" parent="1" source="pSNmFWjTUGqxGpXRM-F6-77" target="pSNmFWjTUGqxGpXRM-F6-96" edge="1">
          <mxGeometry width="50" height="50" relative="1" as="geometry">
            <mxPoint x="660" y="-330" as="sourcePoint" />
            <mxPoint x="790" y="-470" as="targetPoint" />
          </mxGeometry>
        </mxCell>
        <mxCell id="pSNmFWjTUGqxGpXRM-F6-115" value="Act H 10W" style="edgeLabel;html=1;align=center;verticalAlign=middle;resizable=0;points=[];" parent="pSNmFWjTUGqxGpXRM-F6-103" vertex="1" connectable="0">
          <mxGeometry x="-0.1498" y="1" relative="1" as="geometry">
            <mxPoint as="offset" />
          </mxGeometry>
        </mxCell>
        <mxCell id="pSNmFWjTUGqxGpXRM-F6-104" value="" style="endArrow=classic;html=1;rounded=0;entryX=0.638;entryY=0.002;entryDx=0;entryDy=0;exitX=0.663;exitY=0.96;exitDx=0;exitDy=0;dashed=1;dashPattern=8 8;entryPerimeter=0;exitPerimeter=0;" parent="1" source="pSNmFWjTUGqxGpXRM-F6-52" target="pSNmFWjTUGqxGpXRM-F6-77" edge="1">
          <mxGeometry width="50" height="50" relative="1" as="geometry">
            <mxPoint x="660" y="-330" as="sourcePoint" />
            <mxPoint x="710" y="-380" as="targetPoint" />
          </mxGeometry>
        </mxCell>
        <mxCell id="pSNmFWjTUGqxGpXRM-F6-150" value="§" style="edgeLabel;html=1;align=center;verticalAlign=middle;resizable=0;points=[];" parent="pSNmFWjTUGqxGpXRM-F6-104" vertex="1" connectable="0">
          <mxGeometry x="-0.0333" y="1" relative="1" as="geometry">
            <mxPoint as="offset" />
          </mxGeometry>
        </mxCell>
        <mxCell id="pSNmFWjTUGqxGpXRM-F6-117" value="" style="group" parent="1" vertex="1" connectable="0">
          <mxGeometry x="590" y="-340" width="80" height="80" as="geometry" />
        </mxCell>
        <mxCell id="pSNmFWjTUGqxGpXRM-F6-118" value="" style="ellipse;whiteSpace=wrap;html=1;aspect=fixed;" parent="pSNmFWjTUGqxGpXRM-F6-117" vertex="1">
          <mxGeometry width="80" height="80" as="geometry" />
        </mxCell>
        <mxCell id="pSNmFWjTUGqxGpXRM-F6-119" value="" style="endArrow=none;html=1;rounded=0;exitX=0.5;exitY=1;exitDx=0;exitDy=0;entryX=0.5;entryY=0;entryDx=0;entryDy=0;" parent="pSNmFWjTUGqxGpXRM-F6-117" source="pSNmFWjTUGqxGpXRM-F6-118" target="pSNmFWjTUGqxGpXRM-F6-118" edge="1">
          <mxGeometry width="50" height="50" relative="1" as="geometry">
            <mxPoint x="-6" y="50" as="sourcePoint" />
            <mxPoint x="44" as="targetPoint" />
          </mxGeometry>
        </mxCell>
        <mxCell id="pSNmFWjTUGqxGpXRM-F6-120" value="" style="endArrow=none;html=1;rounded=0;entryX=1;entryY=0.5;entryDx=0;entryDy=0;" parent="pSNmFWjTUGqxGpXRM-F6-117" target="pSNmFWjTUGqxGpXRM-F6-118" edge="1">
          <mxGeometry width="50" height="50" relative="1" as="geometry">
            <mxPoint x="40" y="40" as="sourcePoint" />
            <mxPoint x="70" y="10" as="targetPoint" />
          </mxGeometry>
        </mxCell>
        <mxCell id="pSNmFWjTUGqxGpXRM-F6-121" value="10" style="text;html=1;strokeColor=none;fillColor=none;align=center;verticalAlign=middle;whiteSpace=wrap;rounded=0;" parent="pSNmFWjTUGqxGpXRM-F6-117" vertex="1">
          <mxGeometry x="10" y="25" width="20" height="30" as="geometry" />
        </mxCell>
        <mxCell id="pSNmFWjTUGqxGpXRM-F6-122" value="50" style="text;html=1;strokeColor=none;fillColor=none;align=center;verticalAlign=middle;whiteSpace=wrap;rounded=0;" parent="pSNmFWjTUGqxGpXRM-F6-117" vertex="1">
          <mxGeometry x="50" y="10" width="20" height="30" as="geometry" />
        </mxCell>
        <mxCell id="pSNmFWjTUGqxGpXRM-F6-123" value="50" style="text;html=1;strokeColor=none;fillColor=none;align=center;verticalAlign=middle;whiteSpace=wrap;rounded=0;" parent="pSNmFWjTUGqxGpXRM-F6-117" vertex="1">
          <mxGeometry x="50" y="40" width="20" height="30" as="geometry" />
        </mxCell>
        <mxCell id="pSNmFWjTUGqxGpXRM-F6-124" value="" style="endArrow=classic;html=1;rounded=0;entryX=0;entryY=0.5;entryDx=0;entryDy=0;exitX=0.938;exitY=0.719;exitDx=0;exitDy=0;exitPerimeter=0;fillColor=#f8cecc;strokeColor=#b85450;" parent="1" source="pSNmFWjTUGqxGpXRM-F6-34" target="pSNmFWjTUGqxGpXRM-F6-118" edge="1">
          <mxGeometry width="50" height="50" relative="1" as="geometry">
            <mxPoint x="640" y="-360" as="sourcePoint" />
            <mxPoint x="690" y="-410" as="targetPoint" />
          </mxGeometry>
        </mxCell>
        <mxCell id="pSNmFWjTUGqxGpXRM-F6-125" value="Act I 30W" style="edgeLabel;html=1;align=center;verticalAlign=middle;resizable=0;points=[];" parent="pSNmFWjTUGqxGpXRM-F6-124" vertex="1" connectable="0">
          <mxGeometry x="0.0006" y="-1" relative="1" as="geometry">
            <mxPoint y="-1" as="offset" />
          </mxGeometry>
        </mxCell>
        <mxCell id="pSNmFWjTUGqxGpXRM-F6-126" value="" style="group" parent="1" vertex="1" connectable="0">
          <mxGeometry x="690" y="-170" width="80" height="80" as="geometry" />
        </mxCell>
        <mxCell id="pSNmFWjTUGqxGpXRM-F6-127" value="" style="ellipse;whiteSpace=wrap;html=1;aspect=fixed;" parent="pSNmFWjTUGqxGpXRM-F6-126" vertex="1">
          <mxGeometry width="80" height="80" as="geometry" />
        </mxCell>
        <mxCell id="pSNmFWjTUGqxGpXRM-F6-128" value="" style="endArrow=none;html=1;rounded=0;exitX=0.5;exitY=1;exitDx=0;exitDy=0;entryX=0.5;entryY=0;entryDx=0;entryDy=0;" parent="pSNmFWjTUGqxGpXRM-F6-126" source="pSNmFWjTUGqxGpXRM-F6-127" target="pSNmFWjTUGqxGpXRM-F6-127" edge="1">
          <mxGeometry width="50" height="50" relative="1" as="geometry">
            <mxPoint x="-6" y="50" as="sourcePoint" />
            <mxPoint x="44" as="targetPoint" />
          </mxGeometry>
        </mxCell>
        <mxCell id="pSNmFWjTUGqxGpXRM-F6-129" value="" style="endArrow=none;html=1;rounded=0;entryX=1;entryY=0.5;entryDx=0;entryDy=0;" parent="pSNmFWjTUGqxGpXRM-F6-126" target="pSNmFWjTUGqxGpXRM-F6-127" edge="1">
          <mxGeometry width="50" height="50" relative="1" as="geometry">
            <mxPoint x="40" y="40" as="sourcePoint" />
            <mxPoint x="70" y="10" as="targetPoint" />
          </mxGeometry>
        </mxCell>
        <mxCell id="pSNmFWjTUGqxGpXRM-F6-130" value="11" style="text;html=1;strokeColor=none;fillColor=none;align=center;verticalAlign=middle;whiteSpace=wrap;rounded=0;" parent="pSNmFWjTUGqxGpXRM-F6-126" vertex="1">
          <mxGeometry x="10" y="25" width="20" height="30" as="geometry" />
        </mxCell>
        <mxCell id="pSNmFWjTUGqxGpXRM-F6-131" value="40" style="text;html=1;strokeColor=none;fillColor=none;align=center;verticalAlign=middle;whiteSpace=wrap;rounded=0;" parent="pSNmFWjTUGqxGpXRM-F6-126" vertex="1">
          <mxGeometry x="50" y="10" width="20" height="30" as="geometry" />
        </mxCell>
        <mxCell id="-BxrGaKp4y2mzYd7at5k-3" value="50" style="text;html=1;strokeColor=none;fillColor=none;align=center;verticalAlign=middle;whiteSpace=wrap;rounded=0;" vertex="1" parent="pSNmFWjTUGqxGpXRM-F6-126">
          <mxGeometry x="50" y="40" width="20" height="30" as="geometry" />
        </mxCell>
        <mxCell id="pSNmFWjTUGqxGpXRM-F6-133" value="" style="endArrow=classic;html=1;rounded=0;entryX=0;entryY=0.5;entryDx=0;entryDy=0;exitX=0.963;exitY=0.377;exitDx=0;exitDy=0;exitPerimeter=0;" parent="1" source="pSNmFWjTUGqxGpXRM-F6-84" target="pSNmFWjTUGqxGpXRM-F6-127" edge="1">
          <mxGeometry width="50" height="50" relative="1" as="geometry">
            <mxPoint x="690" y="-150" as="sourcePoint" />
            <mxPoint x="740" y="-200" as="targetPoint" />
          </mxGeometry>
        </mxCell>
        <mxCell id="pSNmFWjTUGqxGpXRM-F6-134" value="Act J 14W" style="edgeLabel;html=1;align=center;verticalAlign=middle;resizable=0;points=[];" parent="pSNmFWjTUGqxGpXRM-F6-133" vertex="1" connectable="0">
          <mxGeometry x="-0.0454" y="-1" relative="1" as="geometry">
            <mxPoint as="offset" />
          </mxGeometry>
        </mxCell>
        <mxCell id="pSNmFWjTUGqxGpXRM-F6-135" value="" style="group" parent="1" vertex="1" connectable="0">
          <mxGeometry x="820" y="-250" width="80" height="80" as="geometry" />
        </mxCell>
        <mxCell id="pSNmFWjTUGqxGpXRM-F6-136" value="" style="ellipse;whiteSpace=wrap;html=1;aspect=fixed;" parent="pSNmFWjTUGqxGpXRM-F6-135" vertex="1">
          <mxGeometry width="80" height="80" as="geometry" />
        </mxCell>
        <mxCell id="pSNmFWjTUGqxGpXRM-F6-137" value="" style="endArrow=none;html=1;rounded=0;exitX=0.5;exitY=1;exitDx=0;exitDy=0;entryX=0.5;entryY=0;entryDx=0;entryDy=0;" parent="pSNmFWjTUGqxGpXRM-F6-135" source="pSNmFWjTUGqxGpXRM-F6-136" target="pSNmFWjTUGqxGpXRM-F6-136" edge="1">
          <mxGeometry width="50" height="50" relative="1" as="geometry">
            <mxPoint x="-6" y="50" as="sourcePoint" />
            <mxPoint x="44" as="targetPoint" />
          </mxGeometry>
        </mxCell>
        <mxCell id="pSNmFWjTUGqxGpXRM-F6-138" value="" style="endArrow=none;html=1;rounded=0;entryX=1;entryY=0.5;entryDx=0;entryDy=0;" parent="pSNmFWjTUGqxGpXRM-F6-135" target="pSNmFWjTUGqxGpXRM-F6-136" edge="1">
          <mxGeometry width="50" height="50" relative="1" as="geometry">
            <mxPoint x="40" y="40" as="sourcePoint" />
            <mxPoint x="70" y="10" as="targetPoint" />
          </mxGeometry>
        </mxCell>
        <mxCell id="pSNmFWjTUGqxGpXRM-F6-139" value="12" style="text;html=1;strokeColor=none;fillColor=none;align=center;verticalAlign=middle;whiteSpace=wrap;rounded=0;" parent="pSNmFWjTUGqxGpXRM-F6-135" vertex="1">
          <mxGeometry x="10" y="25" width="20" height="30" as="geometry" />
        </mxCell>
        <mxCell id="pSNmFWjTUGqxGpXRM-F6-140" value="58" style="text;html=1;strokeColor=none;fillColor=none;align=center;verticalAlign=middle;whiteSpace=wrap;rounded=0;" parent="pSNmFWjTUGqxGpXRM-F6-135" vertex="1">
          <mxGeometry x="50" y="10" width="20" height="30" as="geometry" />
        </mxCell>
        <mxCell id="pSNmFWjTUGqxGpXRM-F6-141" value="106" style="text;html=1;strokeColor=none;fillColor=none;align=center;verticalAlign=middle;whiteSpace=wrap;rounded=0;" parent="pSNmFWjTUGqxGpXRM-F6-135" vertex="1">
          <mxGeometry x="50" y="40" width="20" height="30" as="geometry" />
        </mxCell>
        <mxCell id="pSNmFWjTUGqxGpXRM-F6-142" value="" style="endArrow=classic;html=1;rounded=0;exitX=0;exitY=0;exitDx=0;exitDy=0;entryX=0.988;entryY=0.644;entryDx=0;entryDy=0;entryPerimeter=0;" parent="1" source="pSNmFWjTUGqxGpXRM-F6-160" target="pSNmFWjTUGqxGpXRM-F6-153" edge="1">
          <mxGeometry width="50" height="50" relative="1" as="geometry">
            <mxPoint x="990" y="-600" as="sourcePoint" />
            <mxPoint x="930" y="-630" as="targetPoint" />
          </mxGeometry>
        </mxCell>
        <mxCell id="pSNmFWjTUGqxGpXRM-F6-187" value="Act O 4w" style="edgeLabel;html=1;align=center;verticalAlign=middle;resizable=0;points=[];" parent="pSNmFWjTUGqxGpXRM-F6-142" vertex="1" connectable="0">
          <mxGeometry x="0.0013" y="1" relative="1" as="geometry">
            <mxPoint as="offset" />
          </mxGeometry>
        </mxCell>
        <mxCell id="pSNmFWjTUGqxGpXRM-F6-143" value="" style="endArrow=classic;html=1;rounded=0;exitX=0.979;exitY=0.277;exitDx=0;exitDy=0;exitPerimeter=0;fillColor=#f8cecc;strokeColor=#b85450;" parent="1" source="pSNmFWjTUGqxGpXRM-F6-118" target="pSNmFWjTUGqxGpXRM-F6-136" edge="1">
          <mxGeometry width="50" height="50" relative="1" as="geometry">
            <mxPoint x="740" y="-303" as="sourcePoint" />
            <mxPoint x="790" y="-353" as="targetPoint" />
          </mxGeometry>
        </mxCell>
        <mxCell id="pSNmFWjTUGqxGpXRM-F6-151" value="Act K 8W" style="edgeLabel;html=1;align=center;verticalAlign=middle;resizable=0;points=[];" parent="pSNmFWjTUGqxGpXRM-F6-143" vertex="1" connectable="0">
          <mxGeometry x="-0.1512" y="2" relative="1" as="geometry">
            <mxPoint as="offset" />
          </mxGeometry>
        </mxCell>
        <mxCell id="pSNmFWjTUGqxGpXRM-F6-144" value="" style="endArrow=classic;html=1;rounded=0;exitX=0.604;exitY=0.019;exitDx=0;exitDy=0;exitPerimeter=0;entryX=0.971;entryY=0.694;entryDx=0;entryDy=0;entryPerimeter=0;dashed=1;" parent="1" source="pSNmFWjTUGqxGpXRM-F6-127" target="pSNmFWjTUGqxGpXRM-F6-118" edge="1">
          <mxGeometry width="50" height="50" relative="1" as="geometry">
            <mxPoint x="840" y="-230" as="sourcePoint" />
            <mxPoint x="890" y="-280" as="targetPoint" />
          </mxGeometry>
        </mxCell>
        <mxCell id="pSNmFWjTUGqxGpXRM-F6-147" value="§" style="edgeLabel;html=1;align=center;verticalAlign=middle;resizable=0;points=[];" parent="pSNmFWjTUGqxGpXRM-F6-144" vertex="1" connectable="0">
          <mxGeometry x="0.0285" relative="1" as="geometry">
            <mxPoint as="offset" />
          </mxGeometry>
        </mxCell>
        <mxCell id="pSNmFWjTUGqxGpXRM-F6-152" value="" style="group" parent="1" vertex="1" connectable="0">
          <mxGeometry x="830" y="-550" width="80" height="80" as="geometry" />
        </mxCell>
        <mxCell id="pSNmFWjTUGqxGpXRM-F6-153" value="" style="ellipse;whiteSpace=wrap;html=1;aspect=fixed;" parent="pSNmFWjTUGqxGpXRM-F6-152" vertex="1">
          <mxGeometry width="80" height="80" as="geometry" />
        </mxCell>
        <mxCell id="pSNmFWjTUGqxGpXRM-F6-154" value="" style="endArrow=none;html=1;rounded=0;exitX=0.5;exitY=1;exitDx=0;exitDy=0;entryX=0.5;entryY=0;entryDx=0;entryDy=0;" parent="pSNmFWjTUGqxGpXRM-F6-152" source="pSNmFWjTUGqxGpXRM-F6-153" target="pSNmFWjTUGqxGpXRM-F6-153" edge="1">
          <mxGeometry width="50" height="50" relative="1" as="geometry">
            <mxPoint x="-6" y="50" as="sourcePoint" />
            <mxPoint x="44" as="targetPoint" />
          </mxGeometry>
        </mxCell>
        <mxCell id="pSNmFWjTUGqxGpXRM-F6-155" value="" style="endArrow=none;html=1;rounded=0;entryX=1;entryY=0.5;entryDx=0;entryDy=0;" parent="pSNmFWjTUGqxGpXRM-F6-152" target="pSNmFWjTUGqxGpXRM-F6-153" edge="1">
          <mxGeometry width="50" height="50" relative="1" as="geometry">
            <mxPoint x="40" y="40" as="sourcePoint" />
            <mxPoint x="70" y="10" as="targetPoint" />
          </mxGeometry>
        </mxCell>
        <mxCell id="pSNmFWjTUGqxGpXRM-F6-156" value="16" style="text;html=1;strokeColor=none;fillColor=none;align=center;verticalAlign=middle;whiteSpace=wrap;rounded=0;" parent="pSNmFWjTUGqxGpXRM-F6-152" vertex="1">
          <mxGeometry x="10" y="25" width="20" height="30" as="geometry" />
        </mxCell>
        <mxCell id="pSNmFWjTUGqxGpXRM-F6-157" value="114" style="text;html=1;strokeColor=none;fillColor=none;align=center;verticalAlign=middle;whiteSpace=wrap;rounded=0;" parent="pSNmFWjTUGqxGpXRM-F6-152" vertex="1">
          <mxGeometry x="50" y="10" width="20" height="30" as="geometry" />
        </mxCell>
        <mxCell id="pSNmFWjTUGqxGpXRM-F6-158" value="162" style="text;html=1;strokeColor=none;fillColor=none;align=center;verticalAlign=middle;whiteSpace=wrap;rounded=0;" parent="pSNmFWjTUGqxGpXRM-F6-152" vertex="1">
          <mxGeometry x="50" y="40" width="20" height="30" as="geometry" />
        </mxCell>
        <mxCell id="pSNmFWjTUGqxGpXRM-F6-159" value="" style="group" parent="1" vertex="1" connectable="0">
          <mxGeometry x="970" y="-383" width="80" height="80" as="geometry" />
        </mxCell>
        <mxCell id="pSNmFWjTUGqxGpXRM-F6-160" value="" style="ellipse;whiteSpace=wrap;html=1;aspect=fixed;" parent="pSNmFWjTUGqxGpXRM-F6-159" vertex="1">
          <mxGeometry width="80" height="80" as="geometry" />
        </mxCell>
        <mxCell id="pSNmFWjTUGqxGpXRM-F6-161" value="" style="endArrow=none;html=1;rounded=0;exitX=0.5;exitY=1;exitDx=0;exitDy=0;entryX=0.5;entryY=0;entryDx=0;entryDy=0;" parent="pSNmFWjTUGqxGpXRM-F6-159" source="pSNmFWjTUGqxGpXRM-F6-160" target="pSNmFWjTUGqxGpXRM-F6-160" edge="1">
          <mxGeometry width="50" height="50" relative="1" as="geometry">
            <mxPoint x="-6" y="50" as="sourcePoint" />
            <mxPoint x="44" as="targetPoint" />
          </mxGeometry>
        </mxCell>
        <mxCell id="pSNmFWjTUGqxGpXRM-F6-162" value="" style="endArrow=none;html=1;rounded=0;entryX=1;entryY=0.5;entryDx=0;entryDy=0;" parent="pSNmFWjTUGqxGpXRM-F6-159" target="pSNmFWjTUGqxGpXRM-F6-160" edge="1">
          <mxGeometry width="50" height="50" relative="1" as="geometry">
            <mxPoint x="40" y="40" as="sourcePoint" />
            <mxPoint x="70" y="10" as="targetPoint" />
          </mxGeometry>
        </mxCell>
        <mxCell id="pSNmFWjTUGqxGpXRM-F6-163" value="14" style="text;html=1;strokeColor=none;fillColor=none;align=center;verticalAlign=middle;whiteSpace=wrap;rounded=0;" parent="pSNmFWjTUGqxGpXRM-F6-159" vertex="1">
          <mxGeometry x="10" y="25" width="20" height="30" as="geometry" />
        </mxCell>
        <mxCell id="pSNmFWjTUGqxGpXRM-F6-164" value="110" style="text;html=1;strokeColor=none;fillColor=none;align=center;verticalAlign=middle;whiteSpace=wrap;rounded=0;" parent="pSNmFWjTUGqxGpXRM-F6-159" vertex="1">
          <mxGeometry x="50" y="10" width="20" height="30" as="geometry" />
        </mxCell>
        <mxCell id="pSNmFWjTUGqxGpXRM-F6-165" value="110" style="text;html=1;strokeColor=none;fillColor=none;align=center;verticalAlign=middle;whiteSpace=wrap;rounded=0;" parent="pSNmFWjTUGqxGpXRM-F6-159" vertex="1">
          <mxGeometry x="50" y="40" width="20" height="30" as="geometry" />
        </mxCell>
        <mxCell id="pSNmFWjTUGqxGpXRM-F6-166" value="" style="group;rotation=90;" parent="1" vertex="1" connectable="0">
          <mxGeometry x="790" y="-400" width="80" height="80" as="geometry" />
        </mxCell>
        <mxCell id="pSNmFWjTUGqxGpXRM-F6-167" value="" style="ellipse;whiteSpace=wrap;html=1;aspect=fixed;" parent="pSNmFWjTUGqxGpXRM-F6-166" vertex="1">
          <mxGeometry width="80" height="80" as="geometry" />
        </mxCell>
        <mxCell id="pSNmFWjTUGqxGpXRM-F6-168" value="" style="endArrow=none;html=1;rounded=0;exitX=0.5;exitY=1;exitDx=0;exitDy=0;entryX=0.5;entryY=0;entryDx=0;entryDy=0;" parent="pSNmFWjTUGqxGpXRM-F6-166" source="pSNmFWjTUGqxGpXRM-F6-167" target="pSNmFWjTUGqxGpXRM-F6-167" edge="1">
          <mxGeometry width="50" height="50" relative="1" as="geometry">
            <mxPoint x="-6" y="50" as="sourcePoint" />
            <mxPoint x="44" as="targetPoint" />
          </mxGeometry>
        </mxCell>
        <mxCell id="pSNmFWjTUGqxGpXRM-F6-169" value="" style="endArrow=none;html=1;rounded=0;entryX=1;entryY=0.5;entryDx=0;entryDy=0;" parent="pSNmFWjTUGqxGpXRM-F6-166" target="pSNmFWjTUGqxGpXRM-F6-167" edge="1">
          <mxGeometry width="50" height="50" relative="1" as="geometry">
            <mxPoint x="40" y="40" as="sourcePoint" />
            <mxPoint x="70" y="10" as="targetPoint" />
          </mxGeometry>
        </mxCell>
        <mxCell id="pSNmFWjTUGqxGpXRM-F6-170" value="13" style="text;html=1;strokeColor=none;fillColor=none;align=center;verticalAlign=middle;whiteSpace=wrap;rounded=0;" parent="pSNmFWjTUGqxGpXRM-F6-166" vertex="1">
          <mxGeometry x="10" y="25" width="20" height="30" as="geometry" />
        </mxCell>
        <mxCell id="pSNmFWjTUGqxGpXRM-F6-171" value="58" style="text;html=1;strokeColor=none;fillColor=none;align=center;verticalAlign=middle;whiteSpace=wrap;rounded=0;" parent="pSNmFWjTUGqxGpXRM-F6-166" vertex="1">
          <mxGeometry x="50" y="10" width="20" height="30" as="geometry" />
        </mxCell>
        <mxCell id="pSNmFWjTUGqxGpXRM-F6-172" value="58" style="text;html=1;strokeColor=none;fillColor=none;align=center;verticalAlign=middle;whiteSpace=wrap;rounded=0;" parent="pSNmFWjTUGqxGpXRM-F6-166" vertex="1">
          <mxGeometry x="50" y="40" width="20" height="30" as="geometry" />
        </mxCell>
        <mxCell id="pSNmFWjTUGqxGpXRM-F6-173" value="" style="endArrow=classic;html=1;rounded=0;exitX=0.763;exitY=0.094;exitDx=0;exitDy=0;exitPerimeter=0;entryX=0.125;entryY=0.75;entryDx=0;entryDy=0;entryPerimeter=0;fillColor=#f8cecc;strokeColor=#b85450;" parent="1" source="pSNmFWjTUGqxGpXRM-F6-118" target="pSNmFWjTUGqxGpXRM-F6-167" edge="1">
          <mxGeometry width="50" height="50" relative="1" as="geometry">
            <mxPoint x="1000" y="-590" as="sourcePoint" />
            <mxPoint x="940" y="-620" as="targetPoint" />
          </mxGeometry>
        </mxCell>
        <mxCell id="pSNmFWjTUGqxGpXRM-F6-174" value="Act L 6w" style="edgeLabel;html=1;align=center;verticalAlign=middle;resizable=0;points=[];" parent="pSNmFWjTUGqxGpXRM-F6-173" vertex="1" connectable="0">
          <mxGeometry x="-0.0707" y="1" relative="1" as="geometry">
            <mxPoint as="offset" />
          </mxGeometry>
        </mxCell>
        <mxCell id="pSNmFWjTUGqxGpXRM-F6-175" value="" style="endArrow=classic;html=1;rounded=0;exitX=0.5;exitY=0;exitDx=0;exitDy=0;entryX=0.638;entryY=1.019;entryDx=0;entryDy=0;entryPerimeter=0;dashed=1;fillColor=#f8cecc;strokeColor=#b85450;" parent="1" source="pSNmFWjTUGqxGpXRM-F6-136" target="pSNmFWjTUGqxGpXRM-F6-167" edge="1">
          <mxGeometry width="50" height="50" relative="1" as="geometry">
            <mxPoint x="1000" y="-590" as="sourcePoint" />
            <mxPoint x="940" y="-620" as="targetPoint" />
          </mxGeometry>
        </mxCell>
        <mxCell id="pSNmFWjTUGqxGpXRM-F6-176" value="" style="endArrow=classic;html=1;rounded=0;entryX=0.071;entryY=0.727;entryDx=0;entryDy=0;entryPerimeter=0;fillColor=#f8cecc;strokeColor=#b85450;exitX=0.97;exitY=0.4;exitDx=0;exitDy=0;exitPerimeter=0;" parent="1" source="pSNmFWjTUGqxGpXRM-F6-167" target="pSNmFWjTUGqxGpXRM-F6-160" edge="1">
          <mxGeometry width="50" height="50" relative="1" as="geometry">
            <mxPoint x="900" y="-410" as="sourcePoint" />
            <mxPoint x="940" y="-620" as="targetPoint" />
          </mxGeometry>
        </mxCell>
        <mxCell id="pSNmFWjTUGqxGpXRM-F6-177" value="Act M 52w" style="edgeLabel;html=1;align=center;verticalAlign=middle;resizable=0;points=[];" parent="pSNmFWjTUGqxGpXRM-F6-176" vertex="1" connectable="0">
          <mxGeometry x="-0.245" relative="1" as="geometry">
            <mxPoint as="offset" />
          </mxGeometry>
        </mxCell>
        <mxCell id="pSNmFWjTUGqxGpXRM-F6-178" value="" style="group" parent="1" vertex="1" connectable="0">
          <mxGeometry x="930" y="-650" width="80" height="80" as="geometry" />
        </mxCell>
        <mxCell id="pSNmFWjTUGqxGpXRM-F6-179" value="" style="ellipse;whiteSpace=wrap;html=1;aspect=fixed;" parent="pSNmFWjTUGqxGpXRM-F6-178" vertex="1">
          <mxGeometry width="80" height="80" as="geometry" />
        </mxCell>
        <mxCell id="pSNmFWjTUGqxGpXRM-F6-180" value="" style="endArrow=none;html=1;rounded=0;exitX=0.5;exitY=1;exitDx=0;exitDy=0;entryX=0.5;entryY=0;entryDx=0;entryDy=0;" parent="pSNmFWjTUGqxGpXRM-F6-178" source="pSNmFWjTUGqxGpXRM-F6-179" target="pSNmFWjTUGqxGpXRM-F6-179" edge="1">
          <mxGeometry width="50" height="50" relative="1" as="geometry">
            <mxPoint x="-6" y="50" as="sourcePoint" />
            <mxPoint x="44" as="targetPoint" />
          </mxGeometry>
        </mxCell>
        <mxCell id="pSNmFWjTUGqxGpXRM-F6-181" value="" style="endArrow=none;html=1;rounded=0;entryX=1;entryY=0.5;entryDx=0;entryDy=0;" parent="pSNmFWjTUGqxGpXRM-F6-178" target="pSNmFWjTUGqxGpXRM-F6-179" edge="1">
          <mxGeometry width="50" height="50" relative="1" as="geometry">
            <mxPoint x="40" y="40" as="sourcePoint" />
            <mxPoint x="70" y="10" as="targetPoint" />
          </mxGeometry>
        </mxCell>
        <mxCell id="pSNmFWjTUGqxGpXRM-F6-182" value="15" style="text;html=1;strokeColor=none;fillColor=none;align=center;verticalAlign=middle;whiteSpace=wrap;rounded=0;" parent="pSNmFWjTUGqxGpXRM-F6-178" vertex="1">
          <mxGeometry x="10" y="25" width="20" height="30" as="geometry" />
        </mxCell>
        <mxCell id="pSNmFWjTUGqxGpXRM-F6-183" value="162" style="text;html=1;strokeColor=none;fillColor=none;align=center;verticalAlign=middle;whiteSpace=wrap;rounded=0;" parent="pSNmFWjTUGqxGpXRM-F6-178" vertex="1">
          <mxGeometry x="50" y="10" width="20" height="30" as="geometry" />
        </mxCell>
        <mxCell id="pSNmFWjTUGqxGpXRM-F6-184" value="162" style="text;html=1;strokeColor=none;fillColor=none;align=center;verticalAlign=middle;whiteSpace=wrap;rounded=0;" parent="pSNmFWjTUGqxGpXRM-F6-178" vertex="1">
          <mxGeometry x="50" y="40" width="20" height="30" as="geometry" />
        </mxCell>
        <mxCell id="pSNmFWjTUGqxGpXRM-F6-185" value="" style="endArrow=classic;html=1;rounded=0;exitX=0.375;exitY=0;exitDx=0;exitDy=0;exitPerimeter=0;entryX=0.363;entryY=0.977;entryDx=0;entryDy=0;entryPerimeter=0;fillColor=#f8cecc;strokeColor=#b85450;" parent="1" source="pSNmFWjTUGqxGpXRM-F6-160" target="pSNmFWjTUGqxGpXRM-F6-179" edge="1">
          <mxGeometry width="50" height="50" relative="1" as="geometry">
            <mxPoint x="1000" y="-590" as="sourcePoint" />
            <mxPoint x="940" y="-620" as="targetPoint" />
          </mxGeometry>
        </mxCell>
        <mxCell id="pSNmFWjTUGqxGpXRM-F6-186" value="Act N 52w" style="edgeLabel;html=1;align=center;verticalAlign=middle;resizable=0;points=[];" parent="pSNmFWjTUGqxGpXRM-F6-185" vertex="1" connectable="0">
          <mxGeometry x="0.0039" relative="1" as="geometry">
            <mxPoint x="-4" y="-30" as="offset" />
          </mxGeometry>
        </mxCell>
        <mxCell id="pSNmFWjTUGqxGpXRM-F6-189" value="" style="group" parent="1" vertex="1" connectable="0">
          <mxGeometry x="1010" y="-760" width="80" height="80" as="geometry" />
        </mxCell>
        <mxCell id="pSNmFWjTUGqxGpXRM-F6-190" value="" style="ellipse;whiteSpace=wrap;html=1;aspect=fixed;" parent="pSNmFWjTUGqxGpXRM-F6-189" vertex="1">
          <mxGeometry width="80" height="80" as="geometry" />
        </mxCell>
        <mxCell id="pSNmFWjTUGqxGpXRM-F6-191" value="" style="endArrow=none;html=1;rounded=0;exitX=0.5;exitY=1;exitDx=0;exitDy=0;entryX=0.5;entryY=0;entryDx=0;entryDy=0;" parent="pSNmFWjTUGqxGpXRM-F6-189" source="pSNmFWjTUGqxGpXRM-F6-190" target="pSNmFWjTUGqxGpXRM-F6-190" edge="1">
          <mxGeometry width="50" height="50" relative="1" as="geometry">
            <mxPoint x="-6" y="50" as="sourcePoint" />
            <mxPoint x="44" as="targetPoint" />
          </mxGeometry>
        </mxCell>
        <mxCell id="pSNmFWjTUGqxGpXRM-F6-192" value="" style="endArrow=none;html=1;rounded=0;entryX=1;entryY=0.5;entryDx=0;entryDy=0;" parent="pSNmFWjTUGqxGpXRM-F6-189" target="pSNmFWjTUGqxGpXRM-F6-190" edge="1">
          <mxGeometry width="50" height="50" relative="1" as="geometry">
            <mxPoint x="40" y="40" as="sourcePoint" />
            <mxPoint x="70" y="10" as="targetPoint" />
          </mxGeometry>
        </mxCell>
        <mxCell id="pSNmFWjTUGqxGpXRM-F6-193" value="17" style="text;html=1;strokeColor=none;fillColor=none;align=center;verticalAlign=middle;whiteSpace=wrap;rounded=0;" parent="pSNmFWjTUGqxGpXRM-F6-189" vertex="1">
          <mxGeometry x="10" y="25" width="20" height="30" as="geometry" />
        </mxCell>
        <mxCell id="pSNmFWjTUGqxGpXRM-F6-194" value="166" style="text;html=1;strokeColor=none;fillColor=none;align=center;verticalAlign=middle;whiteSpace=wrap;rounded=0;" parent="pSNmFWjTUGqxGpXRM-F6-189" vertex="1">
          <mxGeometry x="50" y="10" width="20" height="30" as="geometry" />
        </mxCell>
        <mxCell id="pSNmFWjTUGqxGpXRM-F6-195" value="166" style="text;html=1;strokeColor=none;fillColor=none;align=center;verticalAlign=middle;whiteSpace=wrap;rounded=0;" parent="pSNmFWjTUGqxGpXRM-F6-189" vertex="1">
          <mxGeometry x="50" y="40" width="20" height="30" as="geometry" />
        </mxCell>
        <mxCell id="pSNmFWjTUGqxGpXRM-F6-196" value="" style="endArrow=classic;html=1;rounded=0;exitX=0;exitY=0;exitDx=0;exitDy=0;fillColor=#f8cecc;strokeColor=#b85450;" parent="1" source="pSNmFWjTUGqxGpXRM-F6-179" target="pSNmFWjTUGqxGpXRM-F6-190" edge="1">
          <mxGeometry width="50" height="50" relative="1" as="geometry">
            <mxPoint x="950" y="-620" as="sourcePoint" />
            <mxPoint x="980" y="-690" as="targetPoint" />
          </mxGeometry>
        </mxCell>
        <mxCell id="pSNmFWjTUGqxGpXRM-F6-198" value="Act P 4w" style="edgeLabel;html=1;align=center;verticalAlign=middle;resizable=0;points=[];" parent="pSNmFWjTUGqxGpXRM-F6-196" vertex="1" connectable="0">
          <mxGeometry x="0.0327" y="1" relative="1" as="geometry">
            <mxPoint as="offset" />
          </mxGeometry>
        </mxCell>
        <mxCell id="pSNmFWjTUGqxGpXRM-F6-199" value="" style="endArrow=classic;html=1;rounded=0;dashed=1;entryX=0;entryY=0.5;entryDx=0;entryDy=0;exitX=0.5;exitY=0;exitDx=0;exitDy=0;" parent="1" source="pSNmFWjTUGqxGpXRM-F6-96" target="pSNmFWjTUGqxGpXRM-F6-179" edge="1">
          <mxGeometry width="50" height="50" relative="1" as="geometry">
            <mxPoint x="670" y="-610" as="sourcePoint" />
            <mxPoint x="720" y="-660" as="targetPoint" />
          </mxGeometry>
        </mxCell>
        <mxCell id="pSNmFWjTUGqxGpXRM-F6-200" value="" style="endArrow=classic;html=1;rounded=0;dashed=1;entryX=0;entryY=1;entryDx=0;entryDy=0;exitX=0.979;exitY=0.385;exitDx=0;exitDy=0;exitPerimeter=0;" parent="1" source="pSNmFWjTUGqxGpXRM-F6-153" target="pSNmFWjTUGqxGpXRM-F6-179" edge="1">
          <mxGeometry width="50" height="50" relative="1" as="geometry">
            <mxPoint x="770" y="-560" as="sourcePoint" />
            <mxPoint x="950" y="-550" as="targetPoint" />
          </mxGeometry>
        </mxCell>
      </root>
    </mxGraphModel>
  </diagram>
</mxfile>
